<mxfile host="app.diagrams.net" modified="2023-08-16T09:01:12.425Z" agent="Mozilla/5.0 (Windows NT 10.0; Win64; x64) AppleWebKit/537.36 (KHTML, like Gecko) Chrome/116.0.0.0 Safari/537.36" etag="d3tC9LH112pwG6inwiOo" version="21.6.6" type="github">
  <diagram id="C5RBs43oDa-KdzZeNtuy" name="Page-1">
    <mxGraphModel dx="1434" dy="792" grid="1" gridSize="10" guides="1" tooltips="1" connect="1" arrows="1" fold="1" page="1" pageScale="1" pageWidth="827" pageHeight="1169" math="0" shadow="0">
      <root>
        <mxCell id="WIyWlLk6GJQsqaUBKTNV-0" />
        <mxCell id="WIyWlLk6GJQsqaUBKTNV-1" parent="WIyWlLk6GJQsqaUBKTNV-0" />
        <mxCell id="SfcDTSdhk8oT2jvNxq2N-15" style="edgeStyle=orthogonalEdgeStyle;rounded=0;orthogonalLoop=1;jettySize=auto;html=1;exitX=0.5;exitY=1;exitDx=0;exitDy=0;entryX=0.5;entryY=0;entryDx=0;entryDy=0;" edge="1" parent="WIyWlLk6GJQsqaUBKTNV-1" target="SfcDTSdhk8oT2jvNxq2N-14">
          <mxGeometry relative="1" as="geometry">
            <mxPoint x="220" y="470" as="sourcePoint" />
          </mxGeometry>
        </mxCell>
        <mxCell id="SfcDTSdhk8oT2jvNxq2N-22" value="" style="edgeStyle=orthogonalEdgeStyle;rounded=0;orthogonalLoop=1;jettySize=auto;html=1;" edge="1" parent="WIyWlLk6GJQsqaUBKTNV-1" source="SfcDTSdhk8oT2jvNxq2N-0" target="SfcDTSdhk8oT2jvNxq2N-1">
          <mxGeometry relative="1" as="geometry" />
        </mxCell>
        <mxCell id="SfcDTSdhk8oT2jvNxq2N-0" value="Show Instruction" style="rounded=0;whiteSpace=wrap;html=1;" vertex="1" parent="WIyWlLk6GJQsqaUBKTNV-1">
          <mxGeometry x="160" y="120" width="120" height="60" as="geometry" />
        </mxCell>
        <mxCell id="SfcDTSdhk8oT2jvNxq2N-23" value="" style="edgeStyle=orthogonalEdgeStyle;rounded=0;orthogonalLoop=1;jettySize=auto;html=1;" edge="1" parent="WIyWlLk6GJQsqaUBKTNV-1" source="SfcDTSdhk8oT2jvNxq2N-1" target="SfcDTSdhk8oT2jvNxq2N-18">
          <mxGeometry relative="1" as="geometry" />
        </mxCell>
        <mxCell id="SfcDTSdhk8oT2jvNxq2N-1" value="Get userMove" style="shape=parallelogram;perimeter=parallelogramPerimeter;whiteSpace=wrap;html=1;fixedSize=1;" vertex="1" parent="WIyWlLk6GJQsqaUBKTNV-1">
          <mxGeometry x="160" y="220" width="120" height="60" as="geometry" />
        </mxCell>
        <mxCell id="SfcDTSdhk8oT2jvNxq2N-21" value="" style="edgeStyle=orthogonalEdgeStyle;rounded=0;orthogonalLoop=1;jettySize=auto;html=1;" edge="1" parent="WIyWlLk6GJQsqaUBKTNV-1" source="SfcDTSdhk8oT2jvNxq2N-13" target="SfcDTSdhk8oT2jvNxq2N-0">
          <mxGeometry relative="1" as="geometry" />
        </mxCell>
        <mxCell id="SfcDTSdhk8oT2jvNxq2N-13" value="Welcom to Nim" style="ellipse;whiteSpace=wrap;html=1;" vertex="1" parent="WIyWlLk6GJQsqaUBKTNV-1">
          <mxGeometry x="160" y="40" width="120" height="50" as="geometry" />
        </mxCell>
        <mxCell id="SfcDTSdhk8oT2jvNxq2N-29" value="" style="edgeStyle=orthogonalEdgeStyle;rounded=0;orthogonalLoop=1;jettySize=auto;html=1;" edge="1" parent="WIyWlLk6GJQsqaUBKTNV-1" source="SfcDTSdhk8oT2jvNxq2N-18" target="SfcDTSdhk8oT2jvNxq2N-27">
          <mxGeometry relative="1" as="geometry" />
        </mxCell>
        <mxCell id="SfcDTSdhk8oT2jvNxq2N-18" value="remain&amp;nbsp; == 1?" style="rhombus;whiteSpace=wrap;html=1;shadow=0;fontFamily=Helvetica;fontSize=12;align=center;strokeWidth=1;spacing=6;spacingTop=-4;" vertex="1" parent="WIyWlLk6GJQsqaUBKTNV-1">
          <mxGeometry x="170" y="320" width="100" height="80" as="geometry" />
        </mxCell>
        <mxCell id="SfcDTSdhk8oT2jvNxq2N-44" value="" style="edgeStyle=orthogonalEdgeStyle;rounded=0;orthogonalLoop=1;jettySize=auto;html=1;" edge="1" parent="WIyWlLk6GJQsqaUBKTNV-1" source="SfcDTSdhk8oT2jvNxq2N-19">
          <mxGeometry relative="1" as="geometry">
            <mxPoint x="180" y="700" as="targetPoint" />
            <Array as="points">
              <mxPoint x="220" y="680" />
              <mxPoint x="181" y="680" />
            </Array>
          </mxGeometry>
        </mxCell>
        <mxCell id="SfcDTSdhk8oT2jvNxq2N-19" value="You Lose" style="shape=parallelogram;perimeter=parallelogramPerimeter;whiteSpace=wrap;html=1;fixedSize=1;" vertex="1" parent="WIyWlLk6GJQsqaUBKTNV-1">
          <mxGeometry x="160" y="630" width="120" height="30" as="geometry" />
        </mxCell>
        <mxCell id="SfcDTSdhk8oT2jvNxq2N-20" value="Ja" style="text;html=1;align=center;verticalAlign=middle;resizable=0;points=[];autosize=1;strokeColor=none;fillColor=none;" vertex="1" parent="WIyWlLk6GJQsqaUBKTNV-1">
          <mxGeometry x="220" y="590" width="40" height="30" as="geometry" />
        </mxCell>
        <mxCell id="SfcDTSdhk8oT2jvNxq2N-45" style="edgeStyle=orthogonalEdgeStyle;rounded=0;orthogonalLoop=1;jettySize=auto;html=1;entryX=0;entryY=0;entryDx=0;entryDy=0;" edge="1" parent="WIyWlLk6GJQsqaUBKTNV-1" source="SfcDTSdhk8oT2jvNxq2N-24">
          <mxGeometry relative="1" as="geometry">
            <mxPoint x="88.40000000000009" y="694.8" as="targetPoint" />
          </mxGeometry>
        </mxCell>
        <mxCell id="SfcDTSdhk8oT2jvNxq2N-24" value="You Win" style="shape=parallelogram;perimeter=parallelogramPerimeter;whiteSpace=wrap;html=1;fixedSize=1;" vertex="1" parent="WIyWlLk6GJQsqaUBKTNV-1">
          <mxGeometry x="30" y="328" width="120" height="60" as="geometry" />
        </mxCell>
        <mxCell id="SfcDTSdhk8oT2jvNxq2N-26" value="Ja" style="text;html=1;align=center;verticalAlign=middle;resizable=0;points=[];autosize=1;strokeColor=none;fillColor=none;" vertex="1" parent="WIyWlLk6GJQsqaUBKTNV-1">
          <mxGeometry x="145" y="328" width="40" height="30" as="geometry" />
        </mxCell>
        <mxCell id="SfcDTSdhk8oT2jvNxq2N-32" value="" style="edgeStyle=orthogonalEdgeStyle;rounded=0;orthogonalLoop=1;jettySize=auto;html=1;" edge="1" parent="WIyWlLk6GJQsqaUBKTNV-1" source="SfcDTSdhk8oT2jvNxq2N-27" target="SfcDTSdhk8oT2jvNxq2N-31">
          <mxGeometry relative="1" as="geometry" />
        </mxCell>
        <mxCell id="SfcDTSdhk8oT2jvNxq2N-27" value="Get ComputerMove" style="shape=parallelogram;perimeter=parallelogramPerimeter;whiteSpace=wrap;html=1;fixedSize=1;" vertex="1" parent="WIyWlLk6GJQsqaUBKTNV-1">
          <mxGeometry x="145" y="440" width="150" height="50" as="geometry" />
        </mxCell>
        <mxCell id="SfcDTSdhk8oT2jvNxq2N-30" value="Nej" style="text;html=1;align=center;verticalAlign=middle;resizable=0;points=[];autosize=1;strokeColor=none;fillColor=none;" vertex="1" parent="WIyWlLk6GJQsqaUBKTNV-1">
          <mxGeometry x="220" y="390" width="40" height="30" as="geometry" />
        </mxCell>
        <mxCell id="SfcDTSdhk8oT2jvNxq2N-34" value="" style="edgeStyle=orthogonalEdgeStyle;rounded=0;orthogonalLoop=1;jettySize=auto;html=1;" edge="1" parent="WIyWlLk6GJQsqaUBKTNV-1" source="SfcDTSdhk8oT2jvNxq2N-31">
          <mxGeometry relative="1" as="geometry">
            <mxPoint x="220" y="630" as="targetPoint" />
          </mxGeometry>
        </mxCell>
        <mxCell id="SfcDTSdhk8oT2jvNxq2N-39" style="edgeStyle=orthogonalEdgeStyle;rounded=0;orthogonalLoop=1;jettySize=auto;html=1;exitX=1;exitY=0.5;exitDx=0;exitDy=0;" edge="1" parent="WIyWlLk6GJQsqaUBKTNV-1" source="SfcDTSdhk8oT2jvNxq2N-31">
          <mxGeometry relative="1" as="geometry">
            <mxPoint x="510" y="250" as="targetPoint" />
          </mxGeometry>
        </mxCell>
        <mxCell id="SfcDTSdhk8oT2jvNxq2N-31" value="remain&amp;nbsp; == 1?" style="rhombus;whiteSpace=wrap;html=1;shadow=0;fontFamily=Helvetica;fontSize=12;align=center;strokeWidth=1;spacing=6;spacingTop=-4;" vertex="1" parent="WIyWlLk6GJQsqaUBKTNV-1">
          <mxGeometry x="170" y="530" width="100" height="70" as="geometry" />
        </mxCell>
        <mxCell id="SfcDTSdhk8oT2jvNxq2N-35" style="edgeStyle=orthogonalEdgeStyle;rounded=0;orthogonalLoop=1;jettySize=auto;html=1;exitX=0.5;exitY=1;exitDx=0;exitDy=0;" edge="1" parent="WIyWlLk6GJQsqaUBKTNV-1" source="SfcDTSdhk8oT2jvNxq2N-0" target="SfcDTSdhk8oT2jvNxq2N-0">
          <mxGeometry relative="1" as="geometry" />
        </mxCell>
        <mxCell id="SfcDTSdhk8oT2jvNxq2N-40" value="" style="endArrow=classic;html=1;rounded=0;" edge="1" parent="WIyWlLk6GJQsqaUBKTNV-1" target="SfcDTSdhk8oT2jvNxq2N-1">
          <mxGeometry width="50" height="50" relative="1" as="geometry">
            <mxPoint x="510" y="250" as="sourcePoint" />
            <mxPoint x="440" y="380" as="targetPoint" />
          </mxGeometry>
        </mxCell>
        <mxCell id="SfcDTSdhk8oT2jvNxq2N-41" value="Nej" style="text;html=1;align=center;verticalAlign=middle;resizable=0;points=[];autosize=1;strokeColor=none;fillColor=none;" vertex="1" parent="WIyWlLk6GJQsqaUBKTNV-1">
          <mxGeometry x="260" y="538" width="40" height="30" as="geometry" />
        </mxCell>
        <mxCell id="SfcDTSdhk8oT2jvNxq2N-42" value="" style="endArrow=classic;html=1;rounded=0;" edge="1" parent="WIyWlLk6GJQsqaUBKTNV-1">
          <mxGeometry width="50" height="50" relative="1" as="geometry">
            <mxPoint x="170" y="359.5" as="sourcePoint" />
            <mxPoint x="140" y="359.5" as="targetPoint" />
          </mxGeometry>
        </mxCell>
        <mxCell id="SfcDTSdhk8oT2jvNxq2N-48" value="" style="edgeStyle=orthogonalEdgeStyle;rounded=0;orthogonalLoop=1;jettySize=auto;html=1;" edge="1" parent="WIyWlLk6GJQsqaUBKTNV-1" source="SfcDTSdhk8oT2jvNxq2N-46" target="SfcDTSdhk8oT2jvNxq2N-47">
          <mxGeometry relative="1" as="geometry" />
        </mxCell>
        <mxCell id="SfcDTSdhk8oT2jvNxq2N-50" style="edgeStyle=orthogonalEdgeStyle;rounded=0;orthogonalLoop=1;jettySize=auto;html=1;" edge="1" parent="WIyWlLk6GJQsqaUBKTNV-1" source="SfcDTSdhk8oT2jvNxq2N-46">
          <mxGeometry relative="1" as="geometry">
            <mxPoint x="620" y="140" as="targetPoint" />
            <Array as="points">
              <mxPoint x="621" y="710" />
            </Array>
          </mxGeometry>
        </mxCell>
        <mxCell id="SfcDTSdhk8oT2jvNxq2N-46" value="Play again?" style="rhombus;whiteSpace=wrap;html=1;" vertex="1" parent="WIyWlLk6GJQsqaUBKTNV-1">
          <mxGeometry x="75" y="670" width="110" height="60" as="geometry" />
        </mxCell>
        <mxCell id="SfcDTSdhk8oT2jvNxq2N-47" value="Stop" style="ellipse;whiteSpace=wrap;html=1;" vertex="1" parent="WIyWlLk6GJQsqaUBKTNV-1">
          <mxGeometry x="70" y="750" width="120" height="40" as="geometry" />
        </mxCell>
        <mxCell id="SfcDTSdhk8oT2jvNxq2N-49" value="Nej" style="text;html=1;align=center;verticalAlign=middle;resizable=0;points=[];autosize=1;strokeColor=none;fillColor=none;" vertex="1" parent="WIyWlLk6GJQsqaUBKTNV-1">
          <mxGeometry x="90" y="720" width="40" height="30" as="geometry" />
        </mxCell>
        <mxCell id="SfcDTSdhk8oT2jvNxq2N-51" value="" style="endArrow=classic;html=1;rounded=0;entryX=1;entryY=0.5;entryDx=0;entryDy=0;" edge="1" parent="WIyWlLk6GJQsqaUBKTNV-1" target="SfcDTSdhk8oT2jvNxq2N-0">
          <mxGeometry width="50" height="50" relative="1" as="geometry">
            <mxPoint x="620" y="150" as="sourcePoint" />
            <mxPoint x="440" y="380" as="targetPoint" />
          </mxGeometry>
        </mxCell>
        <mxCell id="SfcDTSdhk8oT2jvNxq2N-52" value="Ja" style="text;html=1;align=center;verticalAlign=middle;resizable=0;points=[];autosize=1;strokeColor=none;fillColor=none;" vertex="1" parent="WIyWlLk6GJQsqaUBKTNV-1">
          <mxGeometry x="170" y="708" width="40" height="30" as="geometry" />
        </mxCell>
      </root>
    </mxGraphModel>
  </diagram>
</mxfile>
